<svg width="21" height="18" viewBox="0 0 21 18" fill="none" xmlns="http://www.w3.org/2000/svg">
<line x1="1" y1="3.5" x2="16" y2="3.5" stroke="#4285F4"/>
<line x1="2" y1="17.5" x2="9" y2="17.5" stroke="#FBBC04"/>
<line x1="1.5" y1="4" x2="1.5" y2="12" stroke="#4285F4"/>
<line x1="0.5" y1="4" x2="0.5" y2="11" stroke="#4285F4"/>
<line x1="14" y1="0.5" x2="8" y2="0.499999" stroke="#4285F4"/>
<line x1="15" y1="1.5" x2="7" y2="1.5" stroke="#4285F4"/>
<line x1="0.5" y1="11" x2="0.5" y2="16" stroke="#FBBC04"/>
<line x1="19.5" y1="7" x2="19.5" y2="16" stroke="#EA4335"/>
<line x1="1.5" y1="12" x2="1.5" y2="17" stroke="#FBBC04"/>
<line x1="20.5" y1="8" x2="20.5" y2="15" stroke="#EA4335"/>
<line x1="19.5" y1="3" x2="19.5" y2="7" stroke="#569E56"/>
<line x1="20.5" y1="4" x2="20.5" y2="8" stroke="#569E56"/>
<line x1="20" y1="3.5" x2="16" y2="3.5" stroke="#569E56"/>
<line x1="19" y1="2.5" x2="16" y2="2.5" stroke="#569E56"/>
<line x1="2" y1="2.5" x2="17" y2="2.5" stroke="#4285F4"/>
<line x1="2" y1="16.5" x2="8" y2="16.5" stroke="#FBBC04"/>
<line x1="8" y1="16.5" x2="20" y2="16.5" stroke="#EA4335"/>
<line x1="9" y1="17.5" x2="19" y2="17.5" stroke="#EA4335"/>
<line x1="13" y1="6.5" x2="9" y2="6.5" stroke="#4285F4"/>
<line x1="13" y1="13.5" x2="9" y2="13.5" stroke="#4285F4"/>
<line x1="7.5" y1="8" x2="7.5" y2="12" stroke="#4285F4"/>
<line x1="14.5" y1="8" x2="14.5" y2="12" stroke="#4285F4"/>
<rect x="8" y="7" width="6" height="6" fill="#4285F4"/>
</svg>
