<svg width="14" height="20" viewBox="0 0 14 20" fill="none" xmlns="http://www.w3.org/2000/svg">
<path d="M14 10.0001C14 13.5301 11.39 16.4401 8 16.9301V20.0001H6V16.9301C2.61 16.4401 0 13.5301 0 10.0001H2C2 11.3262 2.52678 12.598 3.46447 13.5357C4.40215 14.4733 5.67392 15.0001 7 15.0001C8.32608 15.0001 9.59785 14.4733 10.5355 13.5357C11.4732 12.598 12 11.3262 12 10.0001H14Z" fill="#EA4335"/>
<path d="M6 16.93L7 15C5.67392 15 4.40215 14.4732 3.46447 13.5355C2.52678 12.5978 2 11.3261 2 10H0C0 11.8774 0.738275 13.5795 1.93952 14.8354C2.99689 15.9408 4.41297 16.7006 6 16.93Z" fill="#FBBC05"/>
<rect x="4" width="6" height="14" rx="3" fill="#4285F4"/>
<rect x="6" y="17" width="2" height="3" fill="#34A853"/>
</svg>
